<?xml version="1.0" standalone="no"?>
<!DOCTYPE svg PUBLIC "-//W3C//DTD SVG 20010904//EN"
 "http://www.w3.org/TR/2001/REC-SVG-20010904/DTD/svg10.dtd">
<svg version="1.0" xmlns="http://www.w3.org/2000/svg"
 width="2000.000000pt" height="2000.000000pt" viewBox="0 0 2000.000000 2000.000000"
 preserveAspectRatio="xMidYMid meet">

<g transform="translate(0.000000,2000.000000) scale(0.100000,-0.100000)"
fill="#000000" stroke="none">
<path d="M9957 12299 c-205 -22 -423 -118 -547 -241 -71 -70 -188 -234 -229
-321 -50 -106 -87 -225 -106 -340 -15 -95 -19 -312 -7 -382 l7 -40 18 47 c22
56 94 125 141 133 17 4 52 5 76 3 l45 -3 12 84 c7 46 14 85 16 87 2 2 30 -8
64 -21 197 -80 753 -104 1023 -46 144 32 289 97 375 168 l29 25 22 -65 c19
-57 30 -102 50 -204 4 -20 10 -23 55 -23 59 0 115 -26 153 -70 l26 -32 0 79
c-1 170 -31 365 -80 512 -28 84 -29 86 -13 150 10 44 13 92 10 146 -7 108 -11
116 -48 103 -70 -24 -179 11 -333 107 -206 128 -458 176 -759 144z"/>
<path d="M13678 12275 c-246 -34 -483 -123 -681 -257 -158 -107 -291 -275
-343 -433 -39 -122 -41 -252 -5 -334 29 -63 79 -103 152 -122 l50 -13 -7 -75
-7 -74 23 21 c13 12 42 29 66 38 35 13 43 22 48 49 6 32 8 33 79 43 107 16
215 56 372 136 77 39 143 72 146 74 4 2 10 -11 14 -27 9 -41 76 -97 140 -117
67 -22 342 -30 459 -15 72 10 235 47 332 76 18 6 22 0 33 -49 7 -31 13 -56 14
-56 1 0 44 16 96 35 51 19 98 35 103 35 4 0 16 -16 25 -35 20 -42 11 -57 -47
-74 -22 -6 -40 -15 -40 -19 1 -4 18 -19 39 -34 25 -17 49 -47 67 -85 25 -50
29 -69 29 -143 -1 -72 -5 -95 -29 -147 -55 -120 -175 -197 -273 -175 l-40 9
-22 -51 c-18 -43 -56 -106 -143 -235 -25 -36 -27 -305 -2 -332 13 -15 14 -23
0 -75 -32 -129 -45 -263 -52 -566 l-5 -238 365 0 365 0 -29 84 c-47 133 -95
242 -150 337 -27 49 -50 91 -50 94 0 3 17 5 39 5 72 0 516 96 562 121 62 35
89 79 89 148 0 70 -20 113 -100 220 -84 113 -116 170 -155 271 -61 159 -87
319 -105 660 -24 446 -70 653 -192 857 -43 73 -130 162 -189 193 -26 14 -85
51 -132 83 -246 167 -578 237 -909 192z"/>
<path d="M6265 12215 c-173 -32 -336 -98 -477 -193 -84 -57 -286 -260 -345
-348 -162 -239 -252 -586 -253 -979 -1 -218 -32 -384 -96 -506 -43 -82 -102
-153 -276 -335 -203 -214 -257 -307 -266 -464 -5 -94 11 -176 53 -267 l24 -53
-555 0 c-608 0 -608 0 -638 -59 -22 -43 -21 -56 28 -270 24 -105 42 -191 40
-191 -2 0 -21 9 -41 20 -44 23 -112 26 -151 6 -123 -65 -252 -327 -304 -616
-40 -230 -21 -657 48 -1025 l5 -30 -20 25 c-12 14 -59 102 -106 197 -66 134
-97 185 -141 232 -136 147 -307 166 -413 45 -72 -81 -96 -180 -95 -384 1 -246
39 -474 120 -719 41 -125 158 -381 219 -479 l27 -44 -83 64 c-155 118 -282
153 -387 108 -107 -46 -153 -131 -159 -295 -4 -94 -1 -124 21 -207 58 -225
163 -403 351 -598 l122 -125 -35 -30 c-47 -39 -66 -87 -57 -142 8 -55 53 -109
103 -123 25 -8 341 -10 993 -8 l955 3 36 25 c65 44 86 129 50 200 -15 31 -62
71 -95 83 -7 2 16 34 54 74 165 176 299 440 355 700 26 122 30 306 9 378 -32
110 -127 175 -235 161 -60 -8 -195 -75 -253 -126 -26 -23 -47 -39 -47 -35 0 4
22 54 50 110 144 300 225 654 237 1048 l6 197 1408 0 1408 0 27 35 c53 70 40
170 -29 225 l-31 25 -537 3 -537 3 -21 87 c-32 138 -236 1031 -276 1206 -20
88 -43 172 -51 188 -27 52 -59 58 -309 58 -124 0 -225 3 -225 6 0 19 150 304
208 396 117 186 208 281 344 357 l57 32 0 163 0 163 -63 91 c-34 50 -75 118
-90 151 l-27 60 -44 -6 c-104 -14 -208 54 -260 168 -56 125 -41 260 36 344 45
48 87 67 152 67 l43 0 13 74 c7 40 15 76 19 78 4 3 51 -8 105 -24 184 -55 459
-77 627 -49 108 17 200 82 200 141 0 13 35 -1 158 -63 235 -118 402 -157 557
-130 122 21 181 68 210 163 42 141 -4 330 -120 493 -147 207 -446 382 -778
456 -123 28 -434 35 -552 14z m-1430 -3818 l48 -27 55 27 c112 55 236 38 324
-45 65 -61 90 -111 96 -193 9 -124 -51 -229 -163 -287 -73 -38 -178 -38 -255
0 l-55 27 -55 -27 c-46 -23 -68 -27 -135 -27 -70 0 -87 4 -134 30 -60 33 -122
104 -142 162 -20 57 -16 160 8 214 54 120 152 181 284 176 60 -3 86 -9 124
-30z m-1423 -877 c73 -395 156 -1137 158 -1415 l1 -60 36 40 c169 190 332 464
493 830 60 136 68 150 93 153 24 3 27 0 27 -26 0 -38 -68 -252 -121 -377 -111
-268 -259 -500 -435 -680 l-77 -80 2 -582 2 -583 -123 0 -123 0 -67 39 c-89
52 -235 161 -337 254 -160 143 -395 427 -373 449 9 9 17 7 34 -8 13 -11 84
-74 158 -139 74 -65 149 -130 165 -145 80 -70 230 -183 378 -282 l162 -109 3
363 c2 200 0 395 -3 434 l-6 70 -85 60 c-230 161 -600 629 -705 889 -66 165
-44 192 49 63 32 -46 104 -151 160 -235 157 -235 227 -313 550 -607 l34 -31
-7 120 c-11 218 -35 524 -75 960 -50 560 -64 749 -57 770 5 11 16 15 34 13 28
-3 28 -5 55 -148z m1045 -2036 c8 -21 -16 -69 -94 -189 -135 -207 -295 -370
-495 -504 l-76 -51 -99 0 -98 0 85 46 c225 121 424 308 680 642 54 70 85 88
97 56z"/>
<path d="M12917 10929 c-66 -51 -52 -174 29 -256 25 -25 47 -43 49 -41 2 2 -3
46 -11 98 -7 52 -14 123 -14 158 0 69 -9 76 -53 41z"/>
<path d="M12820 10662 c0 -69 -37 -262 -70 -362 -37 -112 -82 -199 -155 -295
-83 -111 -103 -146 -115 -202 -15 -67 -1 -119 42 -160 44 -43 77 -53 344 -108
218 -45 235 -47 357 -43 70 3 127 3 127 1 0 -2 -22 -41 -50 -87 -67 -112 -193
-373 -185 -386 8 -12 605 -14 605 -1 0 103 -62 642 -86 752 -5 22 -1 30 25 45
28 16 31 23 31 65 l0 47 -66 11 c-89 16 -182 52 -252 98 -129 86 -251 244
-314 409 -28 74 -34 83 -72 101 -53 26 -102 67 -137 117 l-29 39 0 -41z"/>
<path d="M9140 10666 c0 -13 43 -92 83 -150 49 -72 170 -200 240 -254 61 -47
163 -107 227 -132 l45 -18 -91 92 c-97 97 -152 181 -200 303 -26 69 -29 72
-53 65 -71 -20 -186 19 -232 76 -10 14 -19 22 -19 18z"/>
<path d="M11048 10592 c-49 -25 -104 -32 -148 -20 -23 6 -27 2 -50 -50 -57
-132 -219 -329 -319 -388 -36 -21 -42 -54 -10 -54 35 0 150 50 224 98 121 77
251 226 322 366 19 37 33 69 31 70 -2 1 -24 -9 -50 -22z"/>
<path d="M8535 9431 c-45 -11 -82 -38 -107 -80 l-23 -36 -3 -1037 -2 -1038
1565 0 1565 0 0 1030 c0 848 -2 1036 -14 1063 -17 42 -66 83 -114 97 -43 11
-2818 13 -2867 1z m1364 -963 l69 -35 73 36 c67 33 80 36 160 36 81 0 91 -2
165 -40 92 -47 149 -110 184 -202 30 -80 25 -203 -11 -283 -69 -150 -247 -243
-402 -210 -32 6 -83 25 -113 41 l-56 29 -41 -24 c-92 -53 -189 -67 -285 -42
-281 75 -377 433 -168 630 81 76 166 107 279 103 66 -3 89 -9 146 -39z"/>
<path d="M12744 7516 c-7 -23 -33 -183 -35 -216 -2 -62 -4 -60 76 -60 l76 0
-3 142 -3 143 -54 1 c-29 0 -55 -4 -57 -10z"/>
<path d="M15565 4731 c-100 -7 -125 -18 -157 -70 -42 -68 -22 -165 45 -215 28
-21 30 -21 1000 -23 l972 -3 39 23 c104 59 102 209 -4 271 -35 21 -46 21 -920
22 -487 0 -925 -2 -975 -5z"/>
<path d="M4580 4023 c0 -10 5 -82 12 -160 l12 -143 5408 0 c4486 0 5408 2
5408 13 0 14 17 203 24 270 l4 37 -5434 0 c-5169 0 -5434 -1 -5434 -17z"/>
<path d="M10563 1524 c-3 -9 -1 -25 5 -35 16 -25 16 -26 -15 -32 -42 -9 -60
-24 -47 -37 8 -8 19 -8 40 0 16 7 55 12 87 12 69 0 80 22 16 33 -34 6 -40 10
-36 27 3 11 3 26 0 34 -7 19 -42 18 -50 -2z"/>
<path d="M10785 1410 c-4 -6 13 -32 38 -58 24 -27 46 -54 49 -62 2 -8 11 -11
22 -7 16 6 16 9 -4 36 l-21 30 21 11 c24 13 27 50 4 50 -9 0 -22 -8 -29 -17
-11 -15 -15 -15 -43 5 -20 15 -33 19 -37 12z"/>
<path d="M11147 1399 c-23 -14 -47 -69 -47 -109 0 -25 -4 -30 -25 -30 -21 0
-25 -5 -25 -30 0 -25 4 -30 25 -30 l25 0 0 -110 0 -110 40 0 39 0 3 108 3 107
43 3 c39 3 42 5 42 32 0 27 -3 29 -42 32 -36 3 -44 7 -46 26 -5 36 17 55 56
49 33 -6 33 -6 30 31 -3 37 -3 37 -53 39 -27 2 -58 -2 -68 -8z"/>
<path d="M12446 1394 c-19 -18 -21 -55 -4 -72 28 -28 88 -2 88 38 0 24 -26 50
-50 50 -10 0 -26 -7 -34 -16z"/>
<path d="M10525 1381 c-85 -39 -134 -117 -135 -213 l0 -57 38 -10 c56 -16 229
-13 297 4 81 22 139 55 143 83 9 61 -59 160 -133 193 -54 25 -157 25 -210 0z
m62 -106 c66 -47 8 -150 -70 -123 -50 18 -63 75 -25 115 25 26 64 30 95 8z
m183 -5 c11 -11 20 -27 20 -35 0 -20 -36 -55 -57 -55 -23 0 -53 30 -53 53 0
26 28 57 52 57 10 0 27 -9 38 -20z"/>
<path d="M12570 1190 l0 -210 40 0 40 0 0 52 0 52 53 -52 c49 -49 56 -52 102
-52 l49 0 -55 58 c-93 96 -91 84 -18 158 l63 64 -49 0 c-45 0 -53 -4 -97 -47
l-48 -47 0 117 0 117 -40 0 -40 0 0 -210z"/>
<path d="M7380 1298 l0 -71 -21 19 c-15 14 -36 19 -76 19 -49 0 -58 -3 -83
-32 -16 -18 -32 -48 -36 -68 -25 -133 72 -230 176 -176 33 17 40 18 40 6 0 -9
10 -15 25 -15 l25 0 0 195 0 195 -25 0 c-24 0 -25 -2 -25 -72z m-26 -89 c24
-19 26 -27 26 -89 0 -64 -2 -71 -26 -87 -72 -47 -144 -2 -144 88 0 42 5 55 29
80 35 35 77 38 115 8z"/>
<path d="M9340 1300 l0 -70 -32 20 c-91 56 -188 -10 -188 -127 0 -122 103
-187 196 -126 22 14 24 14 24 -1 0 -9 8 -16 20 -16 19 0 20 7 20 195 0 188 -1
195 -20 195 -18 0 -20 -7 -20 -70z m-26 -91 c24 -19 26 -27 26 -89 0 -64 -2
-71 -26 -87 -32 -21 -86 -22 -110 -2 -27 23 -45 76 -38 114 14 75 91 109 148
64z"/>
<path d="M9590 1175 l0 -195 25 0 c15 0 25 6 25 14 0 10 9 9 40 -6 101 -50
195 39 176 167 -10 67 -48 105 -110 112 -38 5 -53 2 -77 -16 l-29 -22 0 71 c0
68 -1 70 -25 70 l-25 0 0 -195z m192 25 c28 -29 30 -35 26 -86 -5 -62 -26 -90
-73 -99 -20 -4 -40 1 -62 14 -32 20 -33 23 -33 90 0 63 2 71 26 90 39 30 80
27 116 -9z"/>
<path d="M10382 1343 c-17 -23 -23 -26 -33 -15 -20 19 -49 15 -49 -7 0 -13 8
-21 23 -23 23 -4 24 -6 13 -49 -4 -19 -1 -29 8 -32 10 -4 19 6 27 31 6 20 22
52 36 70 22 30 24 52 3 52 -4 0 -17 -12 -28 -27z"/>
<path d="M8067 1346 c-3 -8 0 -21 6 -31 17 -22 47 -9 47 21 0 19 -5 24 -24 24
-13 0 -26 -6 -29 -14z"/>
<path d="M7553 1250 c-67 -40 -88 -117 -54 -194 35 -79 126 -105 213 -60 17 9
25 19 22 29 -8 19 -15 19 -50 0 -54 -28 -109 -14 -137 35 -29 48 -25 50 98 50
130 0 131 0 99 80 -30 73 -122 103 -191 60z m132 -45 c14 -13 25 -33 25 -45 0
-19 -6 -20 -90 -20 -101 0 -108 7 -64 59 34 41 92 44 129 6z"/>
<path d="M7838 1255 c-29 -16 -42 -47 -36 -86 3 -26 42 -50 118 -71 36 -10 46
-18 48 -37 7 -50 -65 -68 -125 -32 -28 18 -33 18 -44 4 -11 -13 -10 -18 6 -29
47 -35 137 -40 177 -10 26 19 39 62 28 90 -11 31 -44 53 -93 61 -89 17 -102
77 -18 83 26 2 52 -3 66 -12 19 -13 25 -13 34 -2 32 39 -104 73 -161 41z"/>
<path d="M8234 1251 c-20 -12 -38 -36 -49 -65 -38 -100 16 -206 104 -206 23 0
55 7 71 15 30 15 30 15 30 -10 0 -38 -15 -61 -49 -75 -36 -14 -93 -6 -111 15
-10 12 -16 13 -26 4 -8 -6 -14 -15 -14 -20 0 -19 62 -39 119 -39 53 0 65 4 93
29 l33 29 3 166 3 166 -25 0 c-17 0 -26 -6 -26 -16 0 -13 -5 -12 -26 5 -34 26
-89 27 -130 2z m126 -36 c29 -15 30 -18 30 -90 0 -65 -3 -76 -22 -89 -12 -9
-39 -16 -59 -16 -30 0 -43 7 -64 32 -24 28 -27 39 -22 82 8 82 67 117 137 81z"/>
<path d="M8610 1263 c-8 -3 -23 -12 -32 -21 -16 -14 -18 -13 -18 1 0 11 -8 17
-25 17 l-25 0 0 -140 0 -140 25 0 25 0 0 110 0 109 30 16 c39 20 73 19 93 -3
14 -15 17 -40 17 -125 l0 -107 25 0 25 0 0 104 c0 111 -11 161 -40 176 -20 11
-75 12 -100 3z"/>
<path d="M8873 1250 c-67 -40 -88 -117 -54 -194 35 -79 126 -105 213 -60 17 9
25 19 22 29 -8 19 -15 19 -50 0 -54 -28 -109 -14 -137 35 -29 48 -25 50 98 50
130 0 131 0 99 80 -30 73 -122 103 -191 60z m132 -45 c14 -13 25 -33 25 -45 0
-19 -6 -20 -90 -20 -101 0 -108 7 -64 59 34 41 92 44 129 6z"/>
<path d="M11392 1254 c-12 -8 -22 -10 -22 -5 0 6 -16 11 -35 11 l-35 0 0 -140
0 -140 40 0 40 0 0 93 c0 101 12 127 58 127 21 0 67 52 55 64 -12 12 -79 6
-101 -10z"/>
<path d="M11544 1251 c-63 -39 -85 -147 -41 -212 32 -49 80 -71 144 -66 28 2
63 11 77 21 26 16 26 17 9 41 -13 18 -24 23 -38 19 -57 -18 -93 -16 -114 5
-12 12 -19 26 -16 31 4 6 49 10 102 10 l96 0 -5 52 c-5 44 -11 57 -42 85 -31
29 -43 33 -88 33 -34 0 -64 -7 -84 -19z m124 -63 c6 -6 12 -17 12 -24 0 -10
-16 -14 -60 -14 -57 0 -60 1 -50 20 20 38 62 46 98 18z"/>
<path d="M11853 1250 c-18 -10 -39 -33 -48 -49 -21 -42 -19 -129 4 -167 38
-62 128 -81 210 -43 l45 20 -26 25 c-21 22 -29 24 -46 15 -32 -17 -87 -13
-105 7 -33 36 -22 42 83 42 l100 0 0 31 c0 45 -29 98 -64 120 -41 25 -112 25
-153 -1z m111 -61 c14 -11 26 -25 26 -30 0 -5 -27 -9 -60 -9 -33 0 -60 4 -60
8 0 13 23 39 40 45 24 9 26 8 54 -14z"/>
<path d="M12202 1254 c-12 -8 -22 -10 -22 -5 0 6 -18 11 -40 11 l-40 0 0 -200
0 -200 40 0 40 0 0 70 0 71 30 -16 c37 -19 73 -19 116 1 98 47 101 219 5 269
-39 19 -100 19 -129 -1z m98 -74 c31 -31 27 -93 -6 -119 -15 -12 -35 -21 -46
-21 -31 0 -68 45 -68 81 0 67 76 103 120 59z"/>
<path d="M8070 1120 l0 -140 25 0 25 0 0 140 0 140 -25 0 -25 0 0 -140z"/>
<path d="M9880 1251 c0 -4 25 -68 56 -141 55 -131 56 -135 40 -166 -11 -23
-23 -33 -43 -36 -17 -2 -29 -10 -31 -20 -5 -25 68 -25 91 0 15 16 157 346 157
364 0 4 -10 8 -22 8 -20 0 -29 -16 -67 -111 -28 -71 -46 -106 -52 -98 -4 7
-25 57 -46 111 -32 84 -41 98 -60 98 -13 0 -23 -4 -23 -9z"/>
<path d="M12440 1120 l0 -140 40 0 40 0 0 140 0 140 -40 0 -40 0 0 -140z"/>
<path d="M10780 1092 c-59 -24 -78 -26 -212 -27 -82 0 -148 -3 -148 -7 0 -3
20 -24 45 -46 111 -98 289 -75 366 46 45 71 45 72 -51 34z"/>
</g>
</svg>
