<?xml version="1.0" standalone="no"?>
<!DOCTYPE svg PUBLIC "-//W3C//DTD SVG 20010904//EN"
 "http://www.w3.org/TR/2001/REC-SVG-20010904/DTD/svg10.dtd">
<svg version="1.0" xmlns="http://www.w3.org/2000/svg"
 width="1000.000000pt" height="1000.000000pt" viewBox="0 0 1000.000000 1000.000000"
 preserveAspectRatio="xMidYMid meet">

<g transform="translate(0.000000,1000.000000) scale(0.100000,-0.100000)"
fill="#000000" stroke="none">
<path d="M3252 5997 c-270 -270 -492 -495 -492 -500 0 -4 225 -7 500 -7 l500
0 0 500 c0 275 -3 500 -8 500 -4 0 -229 -222 -500 -493z"/>
<path d="M4260 5830 l0 -160 30 0 30 0 0 73 1 72 46 -72 c43 -67 50 -73 80
-73 18 0 33 3 33 7 0 3 -21 39 -46 80 -25 41 -43 80 -40 89 3 8 24 41 46 74
22 32 40 61 40 64 0 4 -15 6 -34 6 -31 0 -38 -6 -77 -67 l-44 -67 -3 67 c-3
67 -3 67 -32 67 l-30 0 0 -160z"/>
<path d="M4977 5984 c-13 -13 -7 -52 8 -58 27 -10 46 5 43 33 -3 26 -35 41
-51 25z"/>
<path d="M4597 5883 c-11 -11 -17 -13 -17 -5 0 7 -13 12 -30 12 l-30 0 0 -110
0 -110 30 0 30 0 0 68 c0 54 4 72 18 85 10 10 24 17 30 17 7 0 12 14 12 30 0
34 -17 39 -43 13z"/>
<path d="M4704 5866 c-30 -30 -34 -40 -34 -86 0 -44 4 -56 29 -81 23 -23 38
-29 72 -29 25 0 50 7 61 17 17 15 18 15 18 0 0 -12 9 -17 30 -17 l30 0 0 110
0 110 -30 0 c-16 0 -30 -5 -30 -11 0 -5 -10 -3 -22 5 -39 27 -86 20 -124 -18z
m126 -36 c26 -26 25 -68 -2 -97 -26 -28 -52 -29 -78 -3 -39 39 -12 120 40 120
11 0 29 -9 40 -20z"/>
<path d="M5134 5881 c-97 -59 -53 -211 62 -211 55 0 92 23 111 68 44 106 -74
204 -173 143z m101 -56 c30 -29 32 -58 5 -85 -24 -24 -57 -26 -82 -3 -32 28
-19 91 22 106 26 9 30 8 55 -18z"/>
<path d="M4970 5764 c0 -117 -1 -126 -20 -131 -25 -7 -29 -63 -5 -63 29 0 72
29 79 52 3 13 6 78 6 146 l0 122 -30 0 -30 0 0 -126z"/>
<path d="M5332 5878 c3 -7 20 -57 38 -111 32 -98 32 -98 63 -95 29 3 33 7 51
68 l20 65 19 -68 c20 -66 21 -68 51 -65 30 3 32 7 68 111 l37 107 -33 0 c-31
0 -34 -2 -51 -60 -10 -33 -21 -58 -24 -54 -3 3 -13 29 -21 57 -14 47 -19 52
-46 55 -30 3 -32 1 -48 -58 -10 -34 -19 -60 -22 -57 -2 2 -12 28 -22 58 -17
49 -22 54 -52 57 -24 3 -31 0 -28 -10z"/>
<path d="M5731 5784 l38 -106 -19 -49 c-11 -27 -20 -52 -20 -55 0 -3 14 -4 32
-2 31 3 33 6 90 153 32 83 58 153 58 158 0 4 -13 7 -29 7 -27 0 -32 -6 -53
-60 -12 -32 -26 -56 -29 -52 -4 4 -14 31 -24 60 -16 49 -19 52 -50 52 l-33 0
39 -106z"/>
<path d="M1630 4990 l0 -500 502 0 503 0 -500 500 c-275 275 -501 500 -502
500 -2 0 -3 -225 -3 -500z"/>
<path d="M3250 4985 l-495 -495 498 0 497 0 0 495 c0 272 -1 495 -3 495 -1 0
-225 -223 -497 -495z"/>
<path d="M4250 5365 c0 -24 3 -25 60 -25 37 0 60 -4 60 -11 0 -10 -73 -146
-122 -226 l-20 -33 121 0 121 0 0 30 0 30 -65 0 c-36 0 -65 3 -65 6 0 3 17 36
38 72 22 37 53 93 71 125 l32 57 -115 0 -116 0 0 -25z"/>
<path d="M4857 5384 c-13 -13 -7 -52 8 -58 27 -10 46 5 43 33 -3 26 -35 41
-51 25z"/>
<path d="M5720 5230 l0 -160 30 0 c29 0 30 1 30 48 l0 47 31 -47 c27 -42 36
-48 66 -48 38 0 38 -2 -9 67 -15 23 -28 45 -28 49 0 3 16 29 35 55 l35 49 -35
0 c-29 0 -40 -6 -65 -42 l-30 -41 0 91 0 92 -30 0 -30 0 0 -160z"/>
<path d="M6060 5366 c0 -21 5 -25 38 -28 l37 -3 3 -132 3 -133 29 0 30 0 0
135 0 135 35 0 c31 0 35 3 35 25 l0 25 -105 0 c-105 0 -105 0 -105 -24z"/>
<path d="M7990 5320 c0 -16 -4 -30 -10 -30 -5 0 -10 -11 -10 -25 0 -14 5 -25
10 -25 6 0 10 -31 10 -73 0 -82 9 -97 57 -97 28 0 33 4 33 24 0 13 -7 26 -15
30 -11 4 -15 21 -15 61 0 42 3 55 15 55 9 0 15 9 15 25 0 16 -6 25 -15 25 -10
0 -15 10 -15 30 0 27 -3 30 -30 30 -27 0 -30 -3 -30 -30z"/>
<path d="M4994 5266 c-30 -30 -34 -40 -34 -86 0 -44 4 -56 29 -81 24 -23 38
-29 74 -29 29 0 49 6 58 16 12 14 14 14 20 -3 3 -10 0 -27 -7 -38 -18 -25 -17
-30 2 -49 19 -20 74 -21 74 -2 0 7 -9 16 -20 19 -24 6 -26 29 -5 47 12 10 15
37 15 121 l0 109 -30 0 c-16 0 -30 -5 -30 -11 0 -5 -10 -3 -22 5 -39 27 -86
20 -124 -18z m126 -36 c26 -26 25 -68 -2 -97 -26 -28 -52 -29 -78 -3 -39 39
-12 120 40 120 11 0 29 -9 40 -20z"/>
<path d="M5493 5280 c-36 -22 -60 -82 -49 -125 4 -15 20 -40 36 -56 24 -24 37
-29 78 -29 51 0 102 27 102 55 0 18 -47 25 -61 9 -23 -28 -89 -11 -89 23 0 10
22 13 85 13 l85 0 -6 28 c-20 87 -107 128 -181 82z m98 -40 c38 -21 23 -40
-31 -40 -37 0 -50 4 -50 15 0 28 47 43 81 25z"/>
<path d="M6332 5287 c-69 -39 -78 -147 -15 -197 32 -25 108 -27 141 -4 48 34
65 101 37 154 -27 53 -109 76 -163 47z m106 -65 c17 -22 15 -62 -5 -84 -23
-25 -68 -23 -87 4 -22 32 -20 55 9 84 27 27 59 26 83 -4z"/>
<path d="M6924 5266 c-30 -30 -34 -40 -34 -86 0 -44 4 -56 29 -81 23 -23 38
-29 72 -29 25 0 50 7 61 17 17 15 18 15 18 0 0 -12 9 -17 30 -17 l30 0 0 110
0 110 -30 0 c-16 0 -30 -5 -30 -11 0 -5 -10 -3 -22 5 -39 27 -86 20 -124 -18z
m126 -36 c26 -26 25 -68 -2 -97 -26 -28 -52 -29 -78 -3 -39 39 -12 120 40 120
11 0 29 -9 40 -20z"/>
<path d="M7276 5293 c-3 -4 -24 -6 -46 -5 l-40 3 0 -111 0 -110 30 0 30 0 0
73 c0 75 9 97 42 97 13 0 18 8 18 30 0 28 -17 40 -34 23z"/>
<path d="M7795 5275 c-44 -43 -28 -84 40 -110 46 -18 58 -41 29 -52 -10 -4
-22 1 -29 10 -11 16 -65 25 -65 11 0 -11 23 -49 34 -56 6 -4 30 -8 54 -8 54 0
85 27 80 73 -3 28 -10 35 -55 57 -29 14 -53 30 -53 36 0 19 28 24 44 9 17 -17
66 -20 66 -5 0 25 -50 60 -85 60 -25 0 -44 -8 -60 -25z"/>
<path d="M4508 5180 c36 -109 37 -110 68 -110 30 0 32 3 51 68 l19 67 20 -65
c18 -61 22 -65 51 -68 l32 -3 31 103 c18 57 34 107 37 111 3 5 -10 7 -28 5
-29 -3 -34 -8 -51 -57 -10 -30 -20 -56 -23 -59 -2 -2 -12 23 -21 57 -17 58
-19 61 -49 61 -30 0 -32 -3 -45 -55 -7 -31 -16 -58 -20 -60 -4 -2 -15 23 -25
55 -17 57 -20 60 -51 60 l-32 0 36 -110z"/>
<path d="M4850 5180 l0 -110 30 0 30 0 0 110 0 110 -30 0 -30 0 0 -110z"/>
<path d="M5250 5266 c0 -22 5 -25 39 -28 l40 -3 -45 -78 c-24 -44 -44 -81 -44
-83 0 -2 41 -4 90 -4 89 0 90 0 90 25 0 23 -4 25 -40 25 -22 0 -40 4 -40 9 0
5 18 44 41 85 l41 76 -86 0 c-85 0 -86 0 -86 -24z"/>
<path d="M6531 5278 c0 -7 15 -56 32 -108 31 -92 33 -95 64 -98 31 -3 32 -2
49 57 9 34 20 61 23 61 4 0 14 -26 22 -57 14 -54 17 -58 46 -61 31 -3 31 -3
63 95 18 54 35 104 38 111 3 8 -6 12 -26 12 -28 0 -32 -4 -47 -52 -10 -29 -21
-57 -25 -61 -3 -4 -15 20 -25 53 -18 58 -20 61 -48 58 -27 -3 -32 -9 -44 -53
-8 -27 -18 -54 -22 -58 -4 -4 -16 20 -26 53 -17 55 -21 60 -47 60 -16 0 -28
-5 -27 -12z"/>
<path d="M7340 5265 c0 -23 4 -25 41 -25 l41 0 -47 -85 -46 -85 90 0 c90 0 91
0 91 25 0 23 -4 25 -40 25 -22 0 -40 3 -40 7 0 3 18 39 40 79 22 40 40 76 40
79 0 3 -38 5 -85 5 -84 0 -85 0 -85 -25z"/>
<path d="M7571 5184 l38 -106 -19 -49 c-11 -27 -20 -52 -20 -55 0 -3 14 -4 32
-2 31 3 33 6 90 153 32 83 58 153 58 158 0 4 -13 7 -29 7 -27 0 -32 -6 -53
-60 -12 -32 -26 -56 -29 -52 -4 4 -14 31 -24 60 -16 49 -19 52 -50 52 l-33 0
39 -106z"/>
<path d="M8138 5180 c36 -109 37 -110 68 -110 30 0 32 3 51 68 l19 67 20 -65
c18 -61 22 -65 51 -68 l32 -3 31 103 c18 57 34 107 37 111 3 5 -10 7 -28 5
-29 -3 -34 -8 -51 -57 -10 -30 -20 -56 -23 -59 -2 -2 -12 23 -21 57 -17 58
-19 61 -49 61 -30 0 -32 -3 -45 -55 -7 -31 -16 -58 -20 -60 -4 -2 -15 23 -25
55 -17 57 -20 60 -51 60 l-32 0 36 -110z"/>
<path d="M4260 4630 l0 -160 30 0 c30 0 30 1 30 55 l0 55 44 0 c56 0 101 34
110 85 15 77 -43 125 -151 125 l-63 0 0 -160z m138 88 c7 -7 12 -24 12 -40 0
-30 -23 -48 -64 -48 -24 0 -26 3 -26 50 0 50 0 50 33 50 18 0 38 -5 45 -12z"/>
<path d="M4780 4630 l0 -160 30 0 30 0 0 160 0 160 -30 0 -30 0 0 -160z"/>
<path d="M5110 4630 l0 -160 25 0 c23 0 25 4 25 40 0 22 3 40 8 40 4 0 18 -18
32 -40 21 -33 30 -40 57 -40 18 0 33 2 33 5 0 3 -16 29 -35 57 l-34 52 34 48
c19 26 35 50 35 53 0 3 -15 5 -32 5 -27 0 -38 -8 -63 -43 l-30 -42 -3 93 c-3
90 -3 92 -27 92 l-25 0 0 -160z"/>
<path d="M5700 4631 l0 -161 30 0 30 0 0 95 c0 52 3 95 8 95 4 0 35 -43 70
-95 55 -85 65 -95 92 -95 l30 0 0 160 0 160 -30 0 -29 0 -3 -97 -3 -98 -65 95
c-57 84 -69 95 -97 98 l-33 3 0 -160z"/>
<path d="M6043 4783 c-18 -7 -16 -52 3 -60 23 -9 51 23 38 44 -12 19 -23 24
-41 16z"/>
<path d="M6802 4781 c-8 -4 -12 -19 -10 -32 2 -18 9 -24 28 -24 19 0 26 6 28
24 3 20 -11 41 -28 41 -3 0 -11 -4 -18 -9z"/>
<path d="M7400 4630 l0 -160 29 0 c28 0 30 3 33 42 l3 42 28 -42 c23 -36 32
-42 62 -42 l36 0 -36 52 c-19 29 -35 57 -35 62 0 5 16 31 35 57 l35 49 -34 0
c-27 0 -40 -8 -65 -37 l-30 -38 -1 88 0 87 -30 0 -30 0 0 -160z"/>
<path d="M7629 4774 c-16 -20 0 -49 27 -49 35 0 28 64 -7 65 -4 0 -12 -7 -20
-16z"/>
<path d="M7970 4630 l0 -160 25 0 c24 0 25 2 25 66 0 68 9 98 34 107 31 12 46
-21 46 -99 l0 -74 30 0 30 0 0 79 c0 44 -4 91 -10 106 -14 37 -56 50 -97 31
l-33 -16 0 60 c0 57 -1 60 -25 60 l-25 0 0 -160z"/>
<path d="M4585 4693 c-84 -23 -112 -133 -49 -196 56 -56 152 -38 188 37 17 36
18 43 5 79 -21 61 -85 96 -144 80z m85 -85 c13 -25 13 -31 0 -55 -30 -53 -110
-34 -110 25 0 63 79 84 110 30z"/>
<path d="M4930 4687 c-30 -15 -49 -61 -34 -85 6 -9 30 -27 55 -39 48 -23 57
-46 22 -51 -13 -2 -23 1 -23 7 0 6 -13 11 -30 11 -34 0 -36 -6 -15 -37 30 -43
118 -38 144 8 24 42 8 73 -49 98 -28 12 -50 28 -50 36 0 17 35 21 45 5 3 -5
17 -10 31 -10 37 0 30 36 -13 59 -28 14 -52 14 -83 -2z"/>
<path d="M5395 4693 c-84 -23 -112 -133 -49 -196 56 -56 152 -38 188 37 17 36
18 43 5 79 -21 61 -85 96 -144 80z m85 -85 c13 -25 13 -31 0 -55 -30 -53 -110
-34 -110 25 0 63 79 84 110 30z"/>
<path d="M6203 4685 c-42 -18 -68 -59 -67 -107 2 -49 27 -86 72 -105 44 -18
96 -6 131 31 l24 25 -27 7 c-16 4 -32 2 -39 -5 -15 -15 -70 -14 -85 1 -30 30
-13 38 74 38 l87 0 -7 32 c-8 39 -31 67 -73 84 -40 17 -49 17 -90 -1z m95 -64
c12 -14 8 -16 -39 -19 -62 -4 -72 3 -40 29 26 21 58 18 79 -10z"/>
<path d="M6498 4686 c-16 -8 -28 -11 -28 -5 0 5 -11 9 -25 9 l-25 0 0 -110 0
-110 25 0 c24 0 25 3 25 63 0 75 7 104 27 111 31 12 43 -13 43 -95 l0 -79 30
0 30 0 0 74 c0 54 4 79 16 90 36 37 54 9 54 -86 l0 -78 30 0 30 0 0 91 c0 50
-4 99 -10 109 -16 29 -67 36 -99 12 -22 -16 -29 -17 -37 -6 -14 21 -56 26 -86
10z"/>
<path d="M6963 4685 c-79 -34 -84 -164 -8 -205 40 -21 99 -18 132 6 15 12 28
27 28 35 0 17 -43 25 -58 10 -17 -17 -62 -13 -80 7 -10 10 -14 22 -10 25 3 4
42 7 85 7 l78 0 0 28 c0 37 -25 71 -66 88 -41 17 -60 17 -101 -1z m88 -54 c32
-26 22 -33 -42 -29 l-54 3 23 23 c27 27 43 28 73 3z"/>
<path d="M7234 4686 c-44 -20 -64 -52 -64 -107 0 -86 75 -138 153 -105 61 25
44 51 -33 51 -39 0 -46 4 -58 28 -11 22 -11 32 0 55 12 23 19 27 58 27 76 1
94 26 35 51 -42 17 -51 17 -91 0z"/>
<path d="M7791 4683 c-34 -17 -61 -63 -61 -104 0 -34 29 -85 57 -100 30 -16
91 -16 122 0 21 12 22 14 6 31 -12 14 -25 17 -51 13 -42 -7 -74 18 -74 57 0
41 32 64 77 57 64 -11 85 25 28 49 -44 18 -62 17 -104 -3z"/>
<path d="M6030 4580 l0 -110 30 0 30 0 0 110 0 110 -30 0 -30 0 0 -110z"/>
<path d="M6790 4580 l0 -110 30 0 30 0 0 110 0 110 -30 0 -30 0 0 -110z"/>
<path d="M7620 4580 l0 -110 30 0 30 0 0 110 0 110 -30 0 -30 0 0 -110z"/>
<path d="M5560 4585 c0 -24 3 -25 55 -25 52 0 55 1 55 25 0 24 -3 25 -55 25
-52 0 -55 -1 -55 -25z"/>
</g>
</svg>
